<mxfile host="app.diagrams.net" modified="2021-07-18T16:36:43.779Z" agent="5.0 (Macintosh; Intel Mac OS X 10_15_7) AppleWebKit/537.36 (KHTML, like Gecko) Chrome/91.0.4472.114 Safari/537.36" etag="BBMrIsVPOuzFevFF0Aap" version="14.8.5" type="github" pages="2">
  <diagram id="7ybbHpX5dajk2UukcJ7S" name="Page-1">
    <mxGraphModel dx="1226" dy="1060" grid="1" gridSize="10" guides="1" tooltips="1" connect="1" arrows="1" fold="1" page="1" pageScale="1" pageWidth="850" pageHeight="1100" math="0" shadow="0">
      <root>
        <mxCell id="0" />
        <mxCell id="1" parent="0" />
        <mxCell id="MkK2GJTCESa-Gsvrgqye-18" style="edgeStyle=orthogonalEdgeStyle;rounded=0;orthogonalLoop=1;jettySize=auto;html=1;" edge="1" parent="1" source="MkK2GJTCESa-Gsvrgqye-8" target="MkK2GJTCESa-Gsvrgqye-16">
          <mxGeometry relative="1" as="geometry" />
        </mxCell>
        <mxCell id="MkK2GJTCESa-Gsvrgqye-8" value="Browser" style="rounded=1;whiteSpace=wrap;html=1;" vertex="1" parent="1">
          <mxGeometry x="50" y="160" width="410" height="40" as="geometry" />
        </mxCell>
        <mxCell id="MkK2GJTCESa-Gsvrgqye-13" style="edgeStyle=orthogonalEdgeStyle;rounded=0;orthogonalLoop=1;jettySize=auto;html=1;entryX=0.25;entryY=0;entryDx=0;entryDy=0;" edge="1" parent="1" source="MkK2GJTCESa-Gsvrgqye-10" target="MkK2GJTCESa-Gsvrgqye-8">
          <mxGeometry relative="1" as="geometry" />
        </mxCell>
        <mxCell id="MkK2GJTCESa-Gsvrgqye-10" value="Applicant" style="shape=umlActor;verticalLabelPosition=bottom;verticalAlign=top;html=1;outlineConnect=0;" vertex="1" parent="1">
          <mxGeometry x="137" y="30" width="30" height="60" as="geometry" />
        </mxCell>
        <mxCell id="MkK2GJTCESa-Gsvrgqye-14" style="edgeStyle=orthogonalEdgeStyle;rounded=0;orthogonalLoop=1;jettySize=auto;html=1;" edge="1" parent="1" source="MkK2GJTCESa-Gsvrgqye-12">
          <mxGeometry relative="1" as="geometry">
            <mxPoint x="358" y="160" as="targetPoint" />
          </mxGeometry>
        </mxCell>
        <mxCell id="MkK2GJTCESa-Gsvrgqye-12" value="HR Representative" style="shape=umlActor;verticalLabelPosition=bottom;verticalAlign=top;html=1;outlineConnect=0;" vertex="1" parent="1">
          <mxGeometry x="343" y="30" width="30" height="60" as="geometry" />
        </mxCell>
        <mxCell id="MkK2GJTCESa-Gsvrgqye-19" style="edgeStyle=orthogonalEdgeStyle;rounded=0;orthogonalLoop=1;jettySize=auto;html=1;" edge="1" parent="1" source="MkK2GJTCESa-Gsvrgqye-16" target="MkK2GJTCESa-Gsvrgqye-17">
          <mxGeometry relative="1" as="geometry" />
        </mxCell>
        <mxCell id="MkK2GJTCESa-Gsvrgqye-22" style="edgeStyle=orthogonalEdgeStyle;rounded=0;orthogonalLoop=1;jettySize=auto;html=1;" edge="1" parent="1" source="MkK2GJTCESa-Gsvrgqye-16" target="MkK2GJTCESa-Gsvrgqye-21">
          <mxGeometry relative="1" as="geometry" />
        </mxCell>
        <mxCell id="MkK2GJTCESa-Gsvrgqye-16" value="Web App" style="rounded=1;whiteSpace=wrap;html=1;" vertex="1" parent="1">
          <mxGeometry x="50" y="230" width="410" height="40" as="geometry" />
        </mxCell>
        <mxCell id="MkK2GJTCESa-Gsvrgqye-25" style="edgeStyle=orthogonalEdgeStyle;rounded=0;orthogonalLoop=1;jettySize=auto;html=1;entryX=0.5;entryY=0;entryDx=0;entryDy=0;" edge="1" parent="1" source="MkK2GJTCESa-Gsvrgqye-17" target="MkK2GJTCESa-Gsvrgqye-24">
          <mxGeometry relative="1" as="geometry" />
        </mxCell>
        <mxCell id="MkK2GJTCESa-Gsvrgqye-26" style="edgeStyle=orthogonalEdgeStyle;rounded=0;orthogonalLoop=1;jettySize=auto;html=1;entryX=0.5;entryY=0;entryDx=0;entryDy=0;" edge="1" parent="1" source="MkK2GJTCESa-Gsvrgqye-17" target="MkK2GJTCESa-Gsvrgqye-23">
          <mxGeometry relative="1" as="geometry" />
        </mxCell>
        <mxCell id="MkK2GJTCESa-Gsvrgqye-17" value="Job Prescreener" style="rounded=1;whiteSpace=wrap;html=1;" vertex="1" parent="1">
          <mxGeometry x="320" y="330" width="210" height="40" as="geometry" />
        </mxCell>
        <mxCell id="Db0mCJ6-AtugHzPYzEpu-3" style="edgeStyle=orthogonalEdgeStyle;rounded=0;orthogonalLoop=1;jettySize=auto;html=1;entryX=0.5;entryY=1;entryDx=0;entryDy=0;" edge="1" parent="1" source="MkK2GJTCESa-Gsvrgqye-20" target="MkK2GJTCESa-Gsvrgqye-23">
          <mxGeometry relative="1" as="geometry">
            <mxPoint x="510" y="530" as="sourcePoint" />
            <mxPoint x="680" y="525" as="targetPoint" />
          </mxGeometry>
        </mxCell>
        <mxCell id="MkK2GJTCESa-Gsvrgqye-20" value="Job Dataset" style="shape=note;whiteSpace=wrap;html=1;backgroundOutline=1;darkOpacity=0.05;" vertex="1" parent="1">
          <mxGeometry x="455" y="510" width="50" height="70" as="geometry" />
        </mxCell>
        <mxCell id="MkK2GJTCESa-Gsvrgqye-21" value="Applicant Database" style="shape=cylinder3;whiteSpace=wrap;html=1;boundedLbl=1;backgroundOutline=1;size=15;" vertex="1" parent="1">
          <mxGeometry x="77" y="330" width="60" height="80" as="geometry" />
        </mxCell>
        <mxCell id="MkK2GJTCESa-Gsvrgqye-23" value="Job Profile Analyzer" style="rounded=1;whiteSpace=wrap;html=1;" vertex="1" parent="1">
          <mxGeometry x="430" y="410" width="100" height="40" as="geometry" />
        </mxCell>
        <mxCell id="MkK2GJTCESa-Gsvrgqye-24" value="Sentiment Analyzer" style="rounded=1;whiteSpace=wrap;html=1;" vertex="1" parent="1">
          <mxGeometry x="320" y="410" width="100" height="40" as="geometry" />
        </mxCell>
      </root>
    </mxGraphModel>
  </diagram>
  <diagram id="st5UAcDkh8hBPhruOyUk" name="Page-2">
    <mxGraphModel dx="1226" dy="1060" grid="1" gridSize="10" guides="1" tooltips="1" connect="1" arrows="1" fold="1" page="1" pageScale="1" pageWidth="850" pageHeight="1100" math="0" shadow="0">
      <root>
        <mxCell id="MIVdPbs2UFeUPwhbEwiN-0" />
        <mxCell id="MIVdPbs2UFeUPwhbEwiN-1" parent="MIVdPbs2UFeUPwhbEwiN-0" />
        <mxCell id="MIVdPbs2UFeUPwhbEwiN-2" style="edgeStyle=orthogonalEdgeStyle;rounded=0;orthogonalLoop=1;jettySize=auto;html=1;" edge="1" parent="MIVdPbs2UFeUPwhbEwiN-1" source="MIVdPbs2UFeUPwhbEwiN-3" target="MIVdPbs2UFeUPwhbEwiN-5">
          <mxGeometry relative="1" as="geometry" />
        </mxCell>
        <mxCell id="MIVdPbs2UFeUPwhbEwiN-3" value="Applicant" style="shape=umlActor;verticalLabelPosition=bottom;verticalAlign=top;html=1;outlineConnect=0;" vertex="1" parent="MIVdPbs2UFeUPwhbEwiN-1">
          <mxGeometry x="347.5" y="60" width="30" height="60" as="geometry" />
        </mxCell>
        <mxCell id="MIVdPbs2UFeUPwhbEwiN-4" style="edgeStyle=orthogonalEdgeStyle;rounded=0;orthogonalLoop=1;jettySize=auto;html=1;" edge="1" parent="MIVdPbs2UFeUPwhbEwiN-1" source="MIVdPbs2UFeUPwhbEwiN-5" target="MIVdPbs2UFeUPwhbEwiN-6">
          <mxGeometry relative="1" as="geometry" />
        </mxCell>
        <mxCell id="MIVdPbs2UFeUPwhbEwiN-5" value="Access Job Search Application" style="rounded=1;whiteSpace=wrap;html=1;" vertex="1" parent="MIVdPbs2UFeUPwhbEwiN-1">
          <mxGeometry x="280" y="220" width="165" height="60" as="geometry" />
        </mxCell>
        <mxCell id="MIVdPbs2UFeUPwhbEwiN-6" value="User Select a Job to apply" style="rounded=1;whiteSpace=wrap;html=1;" vertex="1" parent="MIVdPbs2UFeUPwhbEwiN-1">
          <mxGeometry x="280" y="330" width="165" height="60" as="geometry" />
        </mxCell>
        <mxCell id="MIVdPbs2UFeUPwhbEwiN-7" value="User Select a Job to apply" style="rounded=1;whiteSpace=wrap;html=1;" vertex="1" parent="MIVdPbs2UFeUPwhbEwiN-1">
          <mxGeometry x="280" y="430" width="165" height="60" as="geometry" />
        </mxCell>
      </root>
    </mxGraphModel>
  </diagram>
</mxfile>
